<?xml version="1.0" standalone="no"?>
<!DOCTYPE svg PUBLIC "-//W3C//DTD SVG 20010904//EN"
 "http://www.w3.org/TR/2001/REC-SVG-20010904/DTD/svg10.dtd">
<svg version="1.0" xmlns="http://www.w3.org/2000/svg"
 width="295.000000pt" height="295.000000pt" viewBox="0 0 295.000000 295.000000"
 preserveAspectRatio="xMidYMid meet">
<metadata>
Created by potrace 1.11, written by Peter Selinger 2001-2013
</metadata>
<g transform="translate(0.000000,295.000000) scale(0.100000,-0.100000)"
fill="#000000" stroke="none">
<path d="M853 2936 c-227 -58 -352 -248 -299 -456 33 -129 125 -236 242 -280
60 -22 202 -38 247 -27 37 10 119 88 158 151 19 31 37 56 40 56 4 0 9 -10 13
-22 8 -35 92 -125 144 -155 34 -20 61 -27 104 -29 127 -3 303 64 346 132 85
132 67 280 -47 394 -92 92 -207 119 -332 77 -37 -13 -83 -35 -103 -50 l-36
-28 0 26 c0 38 -110 144 -192 185 -56 27 -81 33 -150 36 -49 2 -104 -2 -135
-10z"/>
<path d="M1615 2134 c-160 -23 -404 -29 -525 -14 -36 5 -94 12 -130 17 -36 4
-121 8 -190 8 -114 0 -129 -2 -167 -24 -24 -14 -46 -36 -52 -51 -8 -24 1 -150
33 -455 10 -86 35 -347 41 -425 17 -199 35 -251 86 -259 22 -3 181 13 237 25
19 4 22 0 22 -24 0 -16 10 -42 22 -57 19 -25 26 -27 70 -23 l49 5 65 -73 66
-73 -80 -93 c-188 -221 -477 -653 -386 -577 9 7 48 58 87 114 73 102 271 350
350 439 l44 49 7 -229 c8 -273 13 -332 32 -361 31 -49 35 -26 33 194 -1 226 1
353 6 353 1 0 37 -43 80 -96 109 -135 195 -265 246 -371 42 -87 59 -110 59
-79 0 31 -134 306 -207 424 -13 22 -114 174 -158 238 -10 15 23 51 153 167 23
21 42 42 42 47 0 6 11 10 24 10 14 0 28 5 32 11 11 19 -178 4 -376 -29 -104
-18 -179 -26 -186 -21 -6 5 -9 22 -6 38 4 32 -1 31 202 47 41 3 89 7 105 9 17
2 127 7 245 10 118 4 221 8 228 10 9 3 12 50 12 190 l0 185 30 0 c17 0 30 3
30 6 0 3 -13 24 -28 47 -89 132 -93 281 -13 441 42 83 44 107 6 82 -12 -8 -25
-13 -28 -10 -3 3 -3 43 0 88 7 119 3 121 -212 90z m-196 -1253 c-30 -27 -55
-48 -57 -46 -1 1 0 21 4 43 7 43 12 46 83 51 22 1 18 -5 -30 -48z m-129 5 c0
-7 -3 -27 -6 -44 l-6 -30 -29 33 c-16 18 -29 35 -29 38 0 3 12 8 28 10 15 2
30 5 35 6 4 0 7 -5 7 -13z"/>
<path d="M2220 2122 c-47 -22 -70 -48 -141 -155 l-79 -119 0 -192 0 -191 33
-40 c17 -22 54 -60 80 -85 108 -100 175 -116 232 -55 132 139 119 684 -18 813
-25 24 -82 37 -107 24z"/>
<path d="M1922 1923 c-25 -10 -72 -93 -88 -154 -31 -122 13 -279 79 -279 15 0
18 4 13 23 -51 165 -46 273 15 355 9 12 15 31 12 42 -5 21 -9 22 -31 13z"/>
</g>
</svg>
