<?xml version="1.0" standalone="no"?>
<!DOCTYPE svg PUBLIC "-//W3C//DTD SVG 20010904//EN"
 "http://www.w3.org/TR/2001/REC-SVG-20010904/DTD/svg10.dtd">
<svg version="1.0" xmlns="http://www.w3.org/2000/svg"
 width="512.000000pt" height="512.000000pt" viewBox="0 0 512.000000 512.000000"
 preserveAspectRatio="xMidYMid meet">
<metadata>
Created by potrace 1.11, written by Peter Selinger 2001-2013
</metadata>
<g transform="translate(0.000000,512.000000) scale(0.100000,-0.100000)"
fill="#000000" stroke="none">
<path d="M3391 4603 c-14 -3 -36 -12 -50 -21 -80 -49 -113 -108 -117 -206 -1
-38 -7 -71 -12 -75 -18 -12 -40 -96 -37 -143 12 -159 175 -255 320 -188 34 15
71 23 115 25 73 1 108 16 161 68 63 61 82 164 46 248 -19 46 -72 101 -113 118
-17 7 -37 24 -45 39 -28 55 -52 83 -95 108 -44 26 -121 38 -173 27z"/>
<path d="M1738 4476 c-26 -7 -53 -17 -60 -23 -7 -6 -35 -10 -62 -8 -26 2 -62
-1 -79 -6 -80 -23 -146 -102 -152 -182 -2 -23 -13 -62 -25 -85 -12 -24 -19
-50 -16 -57 2 -7 0 -17 -4 -21 -5 -5 -3 -31 6 -62 35 -117 157 -185 265 -147
20 7 56 11 82 8 26 -3 67 0 92 7 74 21 145 107 145 176 0 15 13 48 29 73 40
62 51 115 36 173 -29 117 -142 184 -257 154z"/>
<path d="M2825 4078 c-16 -6 -41 -19 -55 -28 -16 -12 -32 -15 -45 -10 -30 11
-111 3 -147 -14 -28 -14 -33 -14 -48 -1 -27 24 -87 45 -132 45 -131 0 -228
-91 -232 -217 -1 -52 -2 -53 -40 -68 -51 -21 -102 -75 -117 -123 l-11 -39 -67
0 c-49 -1 -79 -7 -109 -22 -30 -15 -55 -20 -82 -17 -118 13 -229 -81 -234
-199 0 -18 -6 -38 -12 -46 -33 -41 -41 -140 -18 -204 4 -11 4 -17 0 -13 -16
14 -101 -27 -142 -68 -71 -70 -85 -166 -38 -261 26 -55 26 -55 7 -81 -67 -93
-70 -173 -18 -462 9 -56 54 -328 60 -365 3 -23 7 -52 10 -65 3 -14 7 -36 9
-50 3 -14 8 -43 11 -65 8 -54 14 -95 20 -125 12 -56 15 -77 20 -115 5 -37 8
-57 21 -125 2 -14 6 -40 9 -58 3 -17 7 -47 10 -65 3 -17 7 -43 9 -57 5 -26 56
-330 61 -365 3 -17 9 -55 31 -190 2 -16 7 -45 10 -62 l6 -33 938 0 c885 0 939
1 944 18 2 9 8 37 11 62 9 55 13 80 25 150 5 30 12 73 15 95 3 22 8 49 10 61
3 12 7 39 10 60 3 21 10 62 15 89 5 28 12 66 14 85 3 19 7 44 10 55 2 11 7 42
10 68 4 27 9 59 12 70 2 12 6 37 9 56 2 18 6 41 9 50 3 9 7 36 10 61 3 25 8
56 11 70 3 14 8 41 11 60 7 49 11 70 19 110 3 19 8 49 10 65 2 17 6 44 9 60 5
28 31 178 40 235 3 14 7 47 11 74 3 27 8 52 10 55 1 3 6 30 10 60 4 30 9 63
11 75 25 117 24 235 -1 291 -11 22 -18 44 -16 50 1 5 3 23 3 40 0 16 9 39 19
50 43 48 64 158 38 207 -8 14 -7 28 1 48 18 43 14 113 -9 157 -23 46 -81 100
-116 109 -23 6 -24 9 -18 64 16 160 -134 280 -281 224 -9 -4 -24 0 -34 9 -34
31 -111 58 -169 59 -40 1 -67 7 -86 21 -26 18 -27 20 -12 37 28 30 53 112 48
158 -6 77 -57 151 -129 188 -37 20 -132 26 -169 12z"/>
<path d="M4135 4016 c-32 -14 -58 -20 -70 -16 -21 8 -47 5 -107 -11 -67 -17
-138 -110 -138 -181 0 -16 -9 -46 -19 -66 -58 -113 -17 -238 94 -292 49 -24
121 -26 165 -5 14 7 36 9 50 5 61 -17 144 7 193 57 34 34 74 123 63 141 -2 4
9 27 25 51 69 104 57 220 -30 292 -66 54 -146 63 -226 25z"/>
<path d="M1084 3730 c-18 -4 -47 -16 -65 -27 -26 -15 -44 -18 -76 -13 -91 14
-185 -35 -232 -120 -33 -58 -34 -147 -3 -206 22 -44 78 -98 110 -108 11 -4 23
-18 26 -32 8 -32 71 -101 110 -121 40 -21 129 -24 180 -7 80 27 141 111 150
203 2 25 13 52 25 64 69 74 69 200 -1 289 -47 61 -148 96 -224 78z"/>
</g>
</svg>
